<svg width="144" height="37" viewBox="0 0 144 37" fill="none" xmlns="http://www.w3.org/2000/svg">
<path d="M61.2249 16.0452C61.9304 14.868 63.0733 14.3086 64.613 14.3086C66.2938 14.3086 67.6113 15.0639 68.2833 16.2976C68.6916 15.6752 69.2487 15.1647 69.9041 14.8124C70.5595 14.4601 71.2925 14.2772 72.0365 14.2803C75.0895 14.2803 77.0789 16.2976 77.0789 20.1662V26.5021C77.0789 27.4269 76.631 27.8469 75.6785 27.8469C74.7826 27.8469 74.3346 27.4269 74.3346 26.5021V19.8856C74.3346 18.0925 73.2975 16.9982 71.7561 16.9982C70.2446 16.9982 69.1793 18.1754 69.1793 19.8856V26.5021C69.1793 27.3704 68.6748 27.8469 67.8071 27.8469C66.9111 27.8469 66.4632 27.4269 66.4632 26.5021V19.8856C66.4632 18.0925 65.4049 16.9982 63.8846 16.9982C62.3167 16.9982 61.3078 18.1489 61.3078 19.8856V26.5021C61.3078 27.3704 60.8034 27.8469 59.9639 27.8469C59.0944 27.8469 58.6182 27.3704 58.6182 26.5021V16.0452C58.6182 15.2333 58.9268 14.6156 59.8528 14.6156C60.6359 14.6174 61.0838 15.0092 61.2249 16.0452Z" fill="white"/>
<path d="M81.8359 21.4285C82.1428 23.6417 83.4233 25.2071 85.9789 25.2071C87.0791 25.2272 88.1475 24.8379 88.9772 24.1147C89.1258 23.9606 89.3043 23.8387 89.5018 23.7564C89.6993 23.6742 89.9115 23.6333 90.1254 23.6364C90.4632 23.6415 90.7852 23.78 91.0214 24.0216C91.2576 24.2632 91.3888 24.5885 91.3865 24.9265C91.3865 26.2166 89.1166 27.8421 85.896 27.8421C84.9989 27.8451 84.1101 27.6701 83.281 27.3272C82.4519 26.9843 81.699 26.4802 81.0659 25.8442C80.4327 25.2082 79.9319 24.4529 79.5925 23.6219C79.253 22.791 79.0815 21.9009 79.0881 21.0032C79.0881 17.1063 82.1146 14.1343 85.896 14.1343C89.8167 14.1343 92.2824 17.1628 92.2824 19.6054C92.2824 20.7826 91.554 21.4285 90.2383 21.4285H81.8359ZM89.5963 19.353C89.2894 17.7276 87.8326 16.7198 85.9278 16.7198C84.1058 16.7198 82.4815 17.7276 81.977 19.353H89.5963Z" fill="white"/>
<path d="M96.896 16.2698C97.4251 15.1491 98.6897 14.3638 100.118 14.3638C101.547 14.3638 103.452 15.1491 103.452 16.5222C103.452 17.2794 102.947 17.8971 102.162 17.8971C101.789 17.8968 101.43 17.7563 101.155 17.5035C100.718 17.131 100.16 16.9314 99.5857 16.9423C97.8484 16.9423 96.9242 18.2041 96.9242 19.8578V25.9696C96.9242 27.205 96.672 27.8474 95.5803 27.8474C94.5432 27.8474 94.291 27.2015 94.291 25.9061V16.1304C94.291 15.2603 94.6561 14.7009 95.4674 14.7009C96.448 14.7009 96.7003 15.1774 96.896 16.2698Z" fill="white"/>
<path d="M107.202 21.4281C107.51 23.6413 108.789 25.212 111.348 25.212C112.448 25.2321 113.517 24.8428 114.347 24.1195C114.495 23.9656 114.674 23.8437 114.871 23.7615C115.069 23.6792 115.281 23.6383 115.495 23.6413C115.833 23.6459 116.155 23.7842 116.391 24.026C116.628 24.2677 116.759 24.5932 116.756 24.9314C116.756 26.2215 114.488 27.847 111.265 27.847C110.368 27.85 109.48 27.675 108.651 27.3321C107.822 26.9891 107.069 26.485 106.436 25.849C105.803 25.213 105.302 24.4576 104.963 23.6267C104.624 22.7957 104.452 21.9057 104.459 21.0081C104.459 17.1112 107.484 14.1392 111.265 14.1392C115.188 14.1392 117.652 17.1677 117.652 19.6103C117.652 20.7875 116.923 21.4334 115.608 21.4334L107.202 21.4281ZM114.962 19.3526C114.653 17.7272 113.198 16.7194 111.292 16.7194C109.472 16.7194 107.846 17.7272 107.343 19.3526H114.962Z" fill="white"/>
<path d="M122.376 22.3834V26.3632C122.376 27.3727 121.928 27.8493 121.032 27.8493C120.108 27.8493 119.66 27.3727 119.66 26.3632V9.67629C119.66 8.66678 120.108 8.13379 121.032 8.13379C121.928 8.13379 122.376 8.66325 122.376 9.67629V18.7301L126.662 14.9462C126.936 14.6876 127.295 14.5382 127.671 14.5262C128.428 14.5262 129.015 15.0556 129.015 15.7863C129.008 16.0016 128.951 16.2124 128.849 16.4022C128.747 16.592 128.603 16.7557 128.428 16.8805L124.029 20.4968L129.184 25.4014C129.632 25.8214 129.771 26.1867 129.771 26.5503C129.769 26.8867 129.637 27.2091 129.402 27.4497C129.167 27.6903 128.848 27.8304 128.512 27.8404C128.175 27.8404 127.807 27.6992 127.39 27.311L122.376 22.3834Z" fill="white"/>
<path d="M142.684 14.3373C143.552 14.3373 144.002 14.8138 144.002 15.7933V26.0896C144.002 27.2121 143.721 27.7715 142.741 27.7715C141.899 27.7715 141.48 27.1274 141.34 25.7825C140.666 27.0179 138.903 27.8563 137.107 27.8563C133.382 27.8563 130.777 24.856 130.777 21.0173C130.777 17.1205 133.354 14.1484 137.107 14.1484C138.929 14.1484 140.693 14.9056 141.393 16.2786C141.45 15.2886 141.702 14.3373 142.684 14.3373ZM133.497 21.0085C133.497 23.3346 135.121 25.156 137.389 25.156C139.658 25.156 141.284 23.3346 141.284 21.0085C141.284 18.7654 139.659 16.8593 137.389 16.8593C135.12 16.8593 133.495 18.7654 133.495 21.0085H133.497Z" fill="white"/>
<path d="M38.2356 36.6438C41.9605 36.6438 44.9801 33.6222 44.9801 29.8949C44.9801 26.1676 41.9605 23.146 38.2356 23.146C34.5108 23.146 31.4912 26.1676 31.4912 29.8949C31.4912 33.6222 34.5108 36.6438 38.2356 36.6438Z" fill="white"/>
<path d="M29.0448 20.1768C28.9495 20.4485 28.8672 20.7262 28.7979 21.0098C28.8173 20.9568 28.8367 20.9057 28.8543 20.8527C28.8984 20.6762 28.9478 20.5209 29.0007 20.3568C29.0166 20.2968 29.0324 20.2368 29.0448 20.1768Z" fill="white"/>
<path d="M22.5254 11.9282C22.6735 11.937 22.8217 11.9441 22.9716 11.9459C22.8235 11.9353 22.6753 11.9282 22.5254 11.9282Z" fill="white"/>
<path d="M15.7227 18.677C15.7237 20.2609 16.2813 21.7941 17.2979 23.0082C18.3145 24.2223 19.7253 25.04 21.2836 25.3183C22.8419 25.5966 24.4483 25.3177 25.8218 24.5304C27.1954 23.7432 28.2485 22.4977 28.797 21.0119V21.0119C28.8652 20.7284 28.9476 20.4507 29.044 20.1789C29.6602 18.4184 30.8079 16.8929 32.3284 15.8135C33.8488 14.7341 35.6668 14.1541 37.5309 14.1536H37.6967C37.8449 14.1536 37.9913 14.1624 38.1377 14.1712H38.2047C39.4443 14.1712 40.66 13.8293 41.7182 13.1832C42.7764 12.5371 43.6362 11.6117 44.2033 10.5087C44.7703 9.4056 45.0227 8.16752 44.9327 6.93035C44.8426 5.69317 44.4137 4.50473 43.6929 3.49551C42.9722 2.48629 41.9874 1.6953 40.8469 1.2094C39.7063 0.723493 38.454 0.561453 37.2274 0.74107C36.0009 0.920687 34.8475 1.43501 33.8939 2.22759C32.9403 3.02016 32.2234 4.06033 31.8218 5.2339C31.776 5.41039 31.723 5.58688 31.6648 5.76337C31.0713 7.56082 29.9266 9.12527 28.3934 10.2342C26.8603 11.3432 25.0167 11.9403 23.125 11.9404H22.9715C22.8216 11.9404 22.6734 11.9404 22.5253 11.9228H22.4671C21.581 11.923 20.7037 12.0979 19.8852 12.4375C19.0666 12.7771 18.323 13.2747 17.6967 13.9019C17.0704 14.5291 16.5737 15.2736 16.235 16.0929C15.8963 16.9123 15.7222 17.7903 15.7227 18.677V18.677Z" fill="white"/>
<path d="M38.1382 14.1729C37.9918 14.1729 37.8454 14.157 37.6973 14.1553C37.8436 14.1659 37.99 14.1729 38.1382 14.1729Z" fill="white"/>
<path d="M31.665 5.77409C31.7232 5.59761 31.7762 5.42112 31.822 5.24463C31.8228 5.24812 31.8228 5.25173 31.822 5.25522C31.7779 5.42288 31.7285 5.58878 31.6756 5.75115C31.6716 5.75854 31.668 5.7662 31.665 5.77409V5.77409Z" fill="white"/>
<path d="M15.9043 20.1768C15.9995 20.4485 16.0818 20.7262 16.1512 21.0098C16.1318 20.9568 16.1142 20.9057 16.0965 20.8527C16.0507 20.6762 16.0031 20.5209 15.9484 20.3568C15.9325 20.2968 15.9184 20.2368 15.9043 20.1768Z" fill="white"/>
<path d="M22.424 11.9282C22.2776 11.937 22.1276 11.9441 21.9795 11.9459C22.1259 11.9353 22.274 11.9282 22.424 11.9282Z" fill="white"/>
<path d="M29.2279 18.677C29.2268 20.2609 28.6693 21.7941 27.6527 23.0082C26.6361 24.2223 25.2252 25.04 23.6669 25.3183C22.1087 25.5966 20.5022 25.3177 19.1287 24.5304C17.7552 23.7432 16.702 22.4977 16.1535 21.0119V21.0119C16.0853 20.7284 16.003 20.4507 15.9066 20.1789C15.2902 18.4181 14.1422 16.8924 12.6215 15.813C11.1007 14.7336 9.2823 14.1537 7.41781 14.1536H7.25202C7.10387 14.1536 6.95748 14.1624 6.81286 14.1712H6.74407C5.50423 14.1714 4.28833 13.8296 3.2299 13.1835C2.17147 12.5374 1.31145 11.6119 0.74429 10.5086C0.177133 9.40539 -0.0752244 8.16708 0.0149323 6.9297C0.105089 5.69233 0.534272 4.50374 1.25535 3.49448C1.97643 2.48523 2.9615 1.69433 4.1024 1.20866C5.24329 0.722992 6.49588 0.561331 7.72258 0.741432C8.94929 0.921533 10.1027 1.43643 11.0561 2.22958C12.0095 3.02272 12.726 4.06344 13.1269 5.23743C13.1746 5.41392 13.2275 5.59041 13.2857 5.7669C13.8791 7.56406 15.0235 9.12831 16.5564 10.2373C18.0892 11.3462 19.9323 11.9434 21.8238 11.944H21.979C22.1272 11.944 22.2771 11.944 22.4235 11.9263H22.4817C23.3676 11.9263 24.2448 12.1009 25.0633 12.4402C25.8818 12.7794 26.6255 13.2767 27.252 13.9035C27.8784 14.5304 28.3753 15.2746 28.7143 16.0936C29.0534 16.9126 29.2279 17.7905 29.2279 18.677V18.677Z" fill="white"/>
<path d="M6.8125 14.1729C6.95712 14.1729 7.10351 14.157 7.25166 14.1553C7.10704 14.1659 6.96065 14.1729 6.8125 14.1729Z" fill="white"/>
<path d="M13.2857 5.77409C13.2275 5.59761 13.1746 5.42112 13.127 5.24463C13.127 5.24463 13.127 5.24463 13.127 5.25522C13.171 5.42288 13.2204 5.58878 13.2751 5.75115C13.2804 5.75468 13.2839 5.7635 13.2857 5.77409Z" fill="white"/>
<path d="M11.5875 25.2069C12.5152 26.1568 13.1421 27.3595 13.3898 28.6644C13.6374 29.9692 13.4948 31.3182 12.9798 32.5423C12.4648 33.7664 11.6003 34.8112 10.4946 35.546C9.38886 36.2807 8.09107 36.6726 6.76378 36.6726C5.43648 36.6726 4.13869 36.2807 3.03297 35.546C1.92724 34.8112 1.06273 33.7664 0.547731 32.5423C0.0327298 31.3182 -0.109868 29.9692 0.137797 28.6644C0.385463 27.3595 1.01238 26.1568 1.94003 25.2069V25.2069C2.01528 25.1363 2.08935 25.0639 2.16225 24.9898C3.82056 23.3081 4.74849 21.0394 4.74433 18.6768C4.74743 16.3115 3.81689 14.0407 2.1552 12.3585L1.94003 12.1467C1.01178 11.1967 0.384338 9.99367 0.136317 8.68839C-0.111704 7.3831 0.0307236 6.03359 0.545755 4.80894C1.06079 3.58429 1.92552 2.53896 3.03162 1.8039C4.13771 1.06885 5.43598 0.676758 6.76378 0.676758C8.09157 0.676758 9.38985 1.06885 10.4959 1.8039C11.602 2.53896 12.4668 3.58429 12.9818 4.80894C13.4968 6.03359 13.6393 7.3831 13.3912 8.68839C13.1432 9.99367 12.5158 11.1967 11.5875 12.1467L11.3635 12.3585C9.70533 14.0425 8.77581 16.3118 8.77581 18.6759C8.77581 21.0401 9.70533 23.3093 11.3635 24.9933C11.4376 25.0674 11.5099 25.1398 11.5858 25.2104L11.5875 25.2069Z" fill="white"/>
</svg>
